<?xml version="1.0" encoding="UTF-8" standalone="no"?><svg xmlns="http://www.w3.org/2000/svg" xmlns:xlink="http://www.w3.org/1999/xlink" contentScriptType="application/ecmascript" contentStyleType="text/css" height="492px" preserveAspectRatio="none" style="width:411px;height:492px;" version="1.1" viewBox="0 0 411 492" width="411px" zoomAndPan="magnify"><defs/><g><rect fill="#FFFFFF" height="377.6484" style="stroke: #A80036; stroke-width: 1.0;" width="10" x="35.5" y="93.6094"/><rect fill="#FFFFFF" height="30" style="stroke: #A80036; stroke-width: 1.0;" width="10" x="229.5" y="115.9609"/><rect fill="#FFFFFF" height="30" style="stroke: #A80036; stroke-width: 1.0;" width="10" x="229.5" y="176.3125"/><rect fill="#FFFFFF" height="30" style="stroke: #A80036; stroke-width: 1.0;" width="10" x="229.5" y="236.6641"/><rect fill="#FFFFFF" height="66.7031" style="stroke: #A80036; stroke-width: 1.0;" width="10" x="229.5" y="335.0156"/><rect fill="#FFFFFF" height="107.8906" style="stroke: #000000; stroke-width: 2.0;" width="349.5" x="13" y="355.3672"/><rect fill="#FFFFFF" height="46.1875" style="stroke: none; stroke-width: 1.0;" width="349.5" x="13" y="417.0703"/><line style="stroke: #A80036; stroke-width: 1.0; stroke-dasharray: 5.0,5.0;" x1="40" x2="40" y1="83.6094" y2="480.2578"/><line style="stroke: #A80036; stroke-width: 1.0; stroke-dasharray: 5.0,5.0;" x1="234.5" x2="234.5" y1="83.6094" y2="480.2578"/><text fill="#000000" font-family="sans-serif" font-size="14" lengthAdjust="spacingAndGlyphs" textLength="29" x="23" y="80.5332">User</text><ellipse cx="40.5" cy="13" fill="#FEFECE" rx="8" ry="8" style="stroke: #A80036; stroke-width: 2.0;"/><path d="M40.5,21 L40.5,48 M27.5,29 L53.5,29 M40.5,48 L27.5,63 M40.5,48 L53.5,63 " fill="none" style="stroke: #A80036; stroke-width: 2.0;"/><rect fill="#FEFECE" height="31.6094" style="stroke: #A80036; stroke-width: 1.5;" width="60" x="204.5" y="51"/><text fill="#000000" font-family="sans-serif" font-size="14" lengthAdjust="spacingAndGlyphs" textLength="46" x="211.5" y="72.5332">System</text><rect fill="#FFFFFF" height="377.6484" style="stroke: #A80036; stroke-width: 1.0;" width="10" x="35.5" y="93.6094"/><rect fill="#FFFFFF" height="30" style="stroke: #A80036; stroke-width: 1.0;" width="10" x="229.5" y="115.9609"/><rect fill="#FFFFFF" height="30" style="stroke: #A80036; stroke-width: 1.0;" width="10" x="229.5" y="176.3125"/><rect fill="#FFFFFF" height="30" style="stroke: #A80036; stroke-width: 1.0;" width="10" x="229.5" y="236.6641"/><rect fill="#FFFFFF" height="66.7031" style="stroke: #A80036; stroke-width: 1.0;" width="10" x="229.5" y="335.0156"/><polygon fill="#A80036" points="217.5,111.9609,227.5,115.9609,217.5,119.9609,221.5,115.9609" style="stroke: #A80036; stroke-width: 1.0;"/><line style="stroke: #A80036; stroke-width: 1.0;" x1="45.5" x2="223.5" y1="115.9609" y2="115.9609"/><text fill="#000000" font-family="sans-serif" font-size="13" font-weight="bold" lengthAdjust="spacingAndGlyphs" textLength="7" x="52.5" y="111.1045">1</text><text fill="#000000" font-family="sans-serif" font-size="13" lengthAdjust="spacingAndGlyphs" textLength="116" x="63.5" y="111.1045">séléctionne joueur 1</text><polygon fill="#A80036" points="217.5,172.3125,227.5,176.3125,217.5,180.3125,221.5,176.3125" style="stroke: #A80036; stroke-width: 1.0;"/><line style="stroke: #A80036; stroke-width: 1.0;" x1="45.5" x2="223.5" y1="176.3125" y2="176.3125"/><text fill="#000000" font-family="sans-serif" font-size="13" font-weight="bold" lengthAdjust="spacingAndGlyphs" textLength="7" x="52.5" y="171.4561">2</text><text fill="#000000" font-family="sans-serif" font-size="13" lengthAdjust="spacingAndGlyphs" textLength="116" x="63.5" y="171.4561">séléctionne joueur 2</text><polygon fill="#A80036" points="217.5,232.6641,227.5,236.6641,217.5,240.6641,221.5,236.6641" style="stroke: #A80036; stroke-width: 1.0;"/><line style="stroke: #A80036; stroke-width: 1.0;" x1="45.5" x2="223.5" y1="236.6641" y2="236.6641"/><text fill="#000000" font-family="sans-serif" font-size="13" font-weight="bold" lengthAdjust="spacingAndGlyphs" textLength="7" x="52.5" y="231.8076">3</text><text fill="#000000" font-family="sans-serif" font-size="13" lengthAdjust="spacingAndGlyphs" textLength="136" x="63.5" y="231.8076">séléctionne un Résultat</text><polygon fill="#A80036" points="222.5,293.0156,232.5,297.0156,222.5,301.0156,226.5,297.0156" style="stroke: #A80036; stroke-width: 1.0;"/><line style="stroke: #A80036; stroke-width: 1.0;" x1="45.5" x2="228.5" y1="297.0156" y2="297.0156"/><text fill="#000000" font-family="sans-serif" font-size="13" font-weight="bold" lengthAdjust="spacingAndGlyphs" textLength="7" x="52.5" y="292.1592">4</text><text fill="#000000" font-family="sans-serif" font-size="13" lengthAdjust="spacingAndGlyphs" textLength="154" x="63.5" y="292.1592">clique sur le bouton "ADD"</text><line style="stroke: #A80036; stroke-width: 1.0;" x1="234.5" x2="281.5" y1="322.3672" y2="322.3672"/><line style="stroke: #A80036; stroke-width: 1.0;" x1="281.5" x2="281.5" y1="322.3672" y2="335.3672"/><line style="stroke: #A80036; stroke-width: 1.0;" x1="240.5" x2="281.5" y1="335.3672" y2="335.3672"/><polygon fill="#A80036" points="250.5,331.3672,240.5,335.3672,250.5,339.3672,246.5,335.3672" style="stroke: #A80036; stroke-width: 1.0;"/><text fill="#000000" font-family="sans-serif" font-size="13" font-weight="bold" lengthAdjust="spacingAndGlyphs" textLength="7" x="246.5" y="317.5107">5</text><text fill="#000000" font-family="sans-serif" font-size="13" lengthAdjust="spacingAndGlyphs" textLength="142" x="257.5" y="317.5107">Vérification Entrée valide</text><path d="M13,355.3672 L74,355.3672 L74,363.3672 L64,373.3672 L13,373.3672 L13,355.3672 " fill="#EEEEEE" style="stroke: #000000; stroke-width: 1.0;"/><rect fill="none" height="107.8906" style="stroke: #000000; stroke-width: 2.0;" width="349.5" x="13" y="355.3672"/><text fill="#000000" font-family="sans-serif" font-size="13" font-weight="bold" lengthAdjust="spacingAndGlyphs" textLength="16" x="28" y="369.8623">alt</text><text fill="#000000" font-family="sans-serif" font-size="11" font-weight="bold" lengthAdjust="spacingAndGlyphs" textLength="22" x="89" y="368.7861">[ok]</text><line style="stroke: #A80036; stroke-width: 1.0;" x1="239.5" x2="281.5" y1="401.0703" y2="401.0703"/><line style="stroke: #A80036; stroke-width: 1.0;" x1="281.5" x2="281.5" y1="401.0703" y2="414.0703"/><line style="stroke: #A80036; stroke-width: 1.0;" x1="234.5" x2="281.5" y1="414.0703" y2="414.0703"/><polygon fill="#A80036" points="244.5,410.0703,234.5,414.0703,244.5,418.0703,240.5,414.0703" style="stroke: #A80036; stroke-width: 1.0;"/><text fill="#000000" font-family="sans-serif" font-size="13" font-weight="bold" lengthAdjust="spacingAndGlyphs" textLength="7" x="246.5" y="396.2139">6</text><text fill="#000000" font-family="sans-serif" font-size="13" lengthAdjust="spacingAndGlyphs" textLength="93" x="257.5" y="396.2139">ajoute un match</text><line style="stroke: #000000; stroke-width: 1.0; stroke-dasharray: 2.0,2.0;" x1="13" x2="362.5" y1="418.0703" y2="418.0703"/><text fill="#000000" font-family="sans-serif" font-size="11" font-weight="bold" lengthAdjust="spacingAndGlyphs" textLength="43" x="18" y="429.4893">[not ok]</text><polygon fill="#A80036" points="56.5,451.2578,46.5,455.2578,56.5,459.2578,52.5,455.2578" style="stroke: #A80036; stroke-width: 1.0;"/><line style="stroke: #A80036; stroke-width: 1.0;" x1="50.5" x2="233.5" y1="455.2578" y2="455.2578"/><text fill="#000000" font-family="sans-serif" font-size="13" font-weight="bold" lengthAdjust="spacingAndGlyphs" textLength="7" x="62.5" y="450.4014">7</text><text fill="#000000" font-family="sans-serif" font-size="13" lengthAdjust="spacingAndGlyphs" textLength="99" x="73.5" y="450.4014">Message d'erreur</text><!--
@startuml SSD_MATCH_ADD
hide footbox
autonumber
skinparam shadowing false
actor User as u
participant System as s 
activate u
u -> s : séléctionne joueur 1
activate s
deactivate s 
u -> s : séléctionne joueur 2
activate s
deactivate s 
u -> s : séléctionne un Résultat
activate s
deactivate s 
u -> s : clique sur le bouton "ADD"
s -> s : Vérification Entrée valide
alt ok
    activate s
    s -> s : ajoute un match
    deactivate s
else not ok
    s -> u : Message d'erreur
end
@enduml

PlantUML version 1.2018.12(Sun Oct 21 12:15:15 CEST 2018)
(GPL source distribution)
Java Runtime: Java(TM) SE Runtime Environment
JVM: Java HotSpot(TM) 64-Bit Server VM
Java Version: 1.8.0_191-b12
Operating System: Windows 7
OS Version: 6.1
Default Encoding: Cp1252
Language: fr
Country: BE
--></g></svg>