<?xml version="1.0" encoding="UTF-8" standalone="no"?><svg xmlns="http://www.w3.org/2000/svg" xmlns:xlink="http://www.w3.org/1999/xlink" contentScriptType="application/ecmascript" contentStyleType="text/css" height="360px" preserveAspectRatio="none" style="width:385px;height:360px;" version="1.1" viewBox="0 0 385 360" width="385px" zoomAndPan="magnify"><defs/><g><!--class Match--><rect fill="#FEFECE" height="61.8359" id="Match" style="stroke: #A80036; stroke-width: 1.5;" width="64" x="6" y="148"/><ellipse cx="21" cy="164" fill="#ADD1B2" rx="11" ry="11" style="stroke: #A80036; stroke-width: 1.0;"/><path d="M23.7656,159.875 Q23.9219,159.6563 24.1094,159.5469 Q24.2969,159.4375 24.5156,159.4375 Q24.8906,159.4375 25.125,159.6953 Q25.3594,159.9531 25.3594,160.5625 L25.3594,162.0156 Q25.3594,162.625 25.125,162.8906 Q24.8906,163.1563 24.5156,163.1563 Q24.1719,163.1563 23.9688,162.9531 Q23.7656,162.7656 23.6563,162.25 Q23.6094,161.8906 23.4219,161.7031 Q23.0938,161.3281 22.4844,161.1094 Q21.875,160.8906 21.25,160.8906 Q20.4844,160.8906 19.8516,161.2188 Q19.2188,161.5469 18.7266,162.2969 Q18.2344,163.0469 18.2344,164.0781 L18.2344,165.1719 Q18.2344,166.4063 19.125,167.2266 Q20.0156,168.0469 21.6094,168.0469 Q22.5469,168.0469 23.2031,167.7969 Q23.5938,167.6406 24.0156,167.2031 Q24.2813,166.9375 24.4297,166.8594 Q24.5781,166.7813 24.7813,166.7813 Q25.1094,166.7813 25.3672,167.0391 Q25.625,167.2969 25.625,167.6406 Q25.625,167.9844 25.2813,168.3906 Q24.7813,168.9688 23.9844,169.2969 Q22.9063,169.75 21.6094,169.75 Q20.0938,169.75 18.8906,169.125 Q17.9063,168.625 17.2188,167.5547 Q16.5313,166.4844 16.5313,165.2031 L16.5313,164.0469 Q16.5313,162.7188 17.1484,161.5703 Q17.7656,160.4219 18.8594,159.8047 Q19.9531,159.1875 21.1875,159.1875 Q21.9219,159.1875 22.5703,159.3516 Q23.2188,159.5156 23.7656,159.875 Z "/><text fill="#000000" font-family="sans-serif" font-size="12" lengthAdjust="spacingAndGlyphs" textLength="32" x="35" y="168.9102">Match</text><line style="stroke: #A80036; stroke-width: 1.5;" x1="7" x2="69" y1="180" y2="180"/><text fill="#000000" font-family="sans-serif" font-size="11" lengthAdjust="spacingAndGlyphs" textLength="52" x="12" y="195.4189">r : Resultat</text><line style="stroke: #A80036; stroke-width: 1.5;" x1="7" x2="69" y1="201.8359" y2="201.8359"/><!--class Player--><rect fill="#FEFECE" height="61.8359" id="Player" style="stroke: #A80036; stroke-width: 1.5;" width="69" x="57.5" y="8"/><ellipse cx="73.85" cy="24" fill="#ADD1B2" rx="11" ry="11" style="stroke: #A80036; stroke-width: 1.0;"/><path d="M76.6156,19.875 Q76.7719,19.6563 76.9594,19.5469 Q77.1469,19.4375 77.3656,19.4375 Q77.7406,19.4375 77.975,19.6953 Q78.2094,19.9531 78.2094,20.5625 L78.2094,22.0156 Q78.2094,22.625 77.975,22.8906 Q77.7406,23.1563 77.3656,23.1563 Q77.0219,23.1563 76.8188,22.9531 Q76.6156,22.7656 76.5063,22.25 Q76.4594,21.8906 76.2719,21.7031 Q75.9438,21.3281 75.3344,21.1094 Q74.725,20.8906 74.1,20.8906 Q73.3344,20.8906 72.7016,21.2188 Q72.0688,21.5469 71.5766,22.2969 Q71.0844,23.0469 71.0844,24.0781 L71.0844,25.1719 Q71.0844,26.4063 71.975,27.2266 Q72.8656,28.0469 74.4594,28.0469 Q75.3969,28.0469 76.0531,27.7969 Q76.4438,27.6406 76.8656,27.2031 Q77.1313,26.9375 77.2797,26.8594 Q77.4281,26.7813 77.6313,26.7813 Q77.9594,26.7813 78.2172,27.0391 Q78.475,27.2969 78.475,27.6406 Q78.475,27.9844 78.1313,28.3906 Q77.6313,28.9688 76.8344,29.2969 Q75.7563,29.75 74.4594,29.75 Q72.9438,29.75 71.7406,29.125 Q70.7563,28.625 70.0688,27.5547 Q69.3813,26.4844 69.3813,25.2031 L69.3813,24.0469 Q69.3813,22.7188 69.9984,21.5703 Q70.6156,20.4219 71.7094,19.8047 Q72.8031,19.1875 74.0375,19.1875 Q74.7719,19.1875 75.4203,19.3516 Q76.0688,19.5156 76.6156,19.875 Z "/><text fill="#000000" font-family="sans-serif" font-size="12" lengthAdjust="spacingAndGlyphs" textLength="34" x="88.15" y="28.9102">Player</text><line style="stroke: #A80036; stroke-width: 1.5;" x1="58.5" x2="125.5" y1="40" y2="40"/><text fill="#000000" font-family="sans-serif" font-size="11" lengthAdjust="spacingAndGlyphs" textLength="57" x="63.5" y="55.4189">nom : String</text><line style="stroke: #A80036; stroke-width: 1.5;" x1="58.5" x2="125.5" y1="61.8359" y2="61.8359"/><!--class Tournoi--><rect fill="#FEFECE" height="61.8359" id="Tournoi" style="stroke: #A80036; stroke-width: 1.5;" width="74" x="103" y="288"/><ellipse cx="118" cy="304" fill="#ADD1B2" rx="11" ry="11" style="stroke: #A80036; stroke-width: 1.0;"/><path d="M120.7656,299.875 Q120.9219,299.6563 121.1094,299.5469 Q121.2969,299.4375 121.5156,299.4375 Q121.8906,299.4375 122.125,299.6953 Q122.3594,299.9531 122.3594,300.5625 L122.3594,302.0156 Q122.3594,302.625 122.125,302.8906 Q121.8906,303.1563 121.5156,303.1563 Q121.1719,303.1563 120.9688,302.9531 Q120.7656,302.7656 120.6563,302.25 Q120.6094,301.8906 120.4219,301.7031 Q120.0938,301.3281 119.4844,301.1094 Q118.875,300.8906 118.25,300.8906 Q117.4844,300.8906 116.8516,301.2188 Q116.2188,301.5469 115.7266,302.2969 Q115.2344,303.0469 115.2344,304.0781 L115.2344,305.1719 Q115.2344,306.4063 116.125,307.2266 Q117.0156,308.0469 118.6094,308.0469 Q119.5469,308.0469 120.2031,307.7969 Q120.5938,307.6406 121.0156,307.2031 Q121.2813,306.9375 121.4297,306.8594 Q121.5781,306.7813 121.7813,306.7813 Q122.1094,306.7813 122.3672,307.0391 Q122.625,307.2969 122.625,307.6406 Q122.625,307.9844 122.2813,308.3906 Q121.7813,308.9688 120.9844,309.2969 Q119.9063,309.75 118.6094,309.75 Q117.0938,309.75 115.8906,309.125 Q114.9063,308.625 114.2188,307.5547 Q113.5313,306.4844 113.5313,305.2031 L113.5313,304.0469 Q113.5313,302.7188 114.1484,301.5703 Q114.7656,300.4219 115.8594,299.8047 Q116.9531,299.1875 118.1875,299.1875 Q118.9219,299.1875 119.5703,299.3516 Q120.2188,299.5156 120.7656,299.875 Z "/><text fill="#000000" font-family="sans-serif" font-size="12" lengthAdjust="spacingAndGlyphs" textLength="42" x="132" y="308.9102">Tournoi</text><line style="stroke: #A80036; stroke-width: 1.5;" x1="104" x2="176" y1="320" y2="320"/><text fill="#000000" font-family="sans-serif" font-size="11" lengthAdjust="spacingAndGlyphs" textLength="57" x="109" y="335.4189">nom : String</text><line style="stroke: #A80036; stroke-width: 1.5;" x1="104" x2="176" y1="341.8359" y2="341.8359"/><!--class Federation--><rect fill="#FEFECE" height="61.8359" id="Federation" style="stroke: #A80036; stroke-width: 1.5;" width="91" x="283.5" y="148"/><ellipse cx="298.5" cy="164" fill="#ADD1B2" rx="11" ry="11" style="stroke: #A80036; stroke-width: 1.0;"/><path d="M301.2656,159.875 Q301.4219,159.6563 301.6094,159.5469 Q301.7969,159.4375 302.0156,159.4375 Q302.3906,159.4375 302.625,159.6953 Q302.8594,159.9531 302.8594,160.5625 L302.8594,162.0156 Q302.8594,162.625 302.625,162.8906 Q302.3906,163.1563 302.0156,163.1563 Q301.6719,163.1563 301.4688,162.9531 Q301.2656,162.7656 301.1563,162.25 Q301.1094,161.8906 300.9219,161.7031 Q300.5938,161.3281 299.9844,161.1094 Q299.375,160.8906 298.75,160.8906 Q297.9844,160.8906 297.3516,161.2188 Q296.7188,161.5469 296.2266,162.2969 Q295.7344,163.0469 295.7344,164.0781 L295.7344,165.1719 Q295.7344,166.4063 296.625,167.2266 Q297.5156,168.0469 299.1094,168.0469 Q300.0469,168.0469 300.7031,167.7969 Q301.0938,167.6406 301.5156,167.2031 Q301.7813,166.9375 301.9297,166.8594 Q302.0781,166.7813 302.2813,166.7813 Q302.6094,166.7813 302.8672,167.0391 Q303.125,167.2969 303.125,167.6406 Q303.125,167.9844 302.7813,168.3906 Q302.2813,168.9688 301.4844,169.2969 Q300.4063,169.75 299.1094,169.75 Q297.5938,169.75 296.3906,169.125 Q295.4063,168.625 294.7188,167.5547 Q294.0313,166.4844 294.0313,165.2031 L294.0313,164.0469 Q294.0313,162.7188 294.6484,161.5703 Q295.2656,160.4219 296.3594,159.8047 Q297.4531,159.1875 298.6875,159.1875 Q299.4219,159.1875 300.0703,159.3516 Q300.7188,159.5156 301.2656,159.875 Z "/><text fill="#000000" font-family="sans-serif" font-size="12" lengthAdjust="spacingAndGlyphs" textLength="59" x="312.5" y="168.9102">Federation</text><line style="stroke: #A80036; stroke-width: 1.5;" x1="284.5" x2="373.5" y1="180" y2="180"/><text fill="#000000" font-family="sans-serif" font-size="11" lengthAdjust="spacingAndGlyphs" textLength="57" x="289.5" y="195.4189">nom : String</text><line style="stroke: #A80036; stroke-width: 1.5;" x1="284.5" x2="373.5" y1="201.8359" y2="201.8359"/><!--link Match to Tournoi--><path d="M31.7032,210.358 C30.1323,225.609 30.8039,243.81 39,258 C52.7714,281.8424 80.1055,297.224 102.8682,306.4379 " fill="none" id="Match-Tournoi" style="stroke: #A80036; stroke-width: 1.0;"/><polygon fill="#000000" points="65.5,251,68.5,245,71.5,251,65.5,251" style="stroke: #000000; stroke-width: 1.0;"/><text fill="#000000" font-family="sans-serif" font-size="13" lengthAdjust="spacingAndGlyphs" textLength="60" x="40" y="267.4951">is made of</text><text fill="#000000" font-family="sans-serif" font-size="13" lengthAdjust="spacingAndGlyphs" textLength="5" x="25.0263" y="231.4049">*</text><text fill="#000000" font-family="sans-serif" font-size="13" lengthAdjust="spacingAndGlyphs" textLength="7" x="88.1228" y="300.0625">1</text><!--link Player to Match--><path d="M64.5416,70.163 C57.7337,79.176 51.1933,89.477 47,100 C40.9953,115.069 38.6284,132.983 37.8148,147.841 " fill="none" id="Player-Match" style="stroke: #A80036; stroke-width: 1.0;"/><text fill="#000000" font-family="sans-serif" font-size="13" lengthAdjust="spacingAndGlyphs" textLength="52" x="48" y="114.4951">played in</text><polygon fill="#000000" points="69.5,123.3516,72.5,129.3516,75.5,123.3516,69.5,123.3516" style="stroke: #000000; stroke-width: 1.0;"/><text fill="#000000" font-family="sans-serif" font-size="13" lengthAdjust="spacingAndGlyphs" textLength="7" x="51.4467" y="91.4191">2</text><text fill="#000000" font-family="sans-serif" font-size="13" lengthAdjust="spacingAndGlyphs" textLength="7" x="30.0547" y="137.3127">1</text><!--link Player to Tournoi--><path d="M107.235,70.186 C111.359,79.531 115.397,90.003 118,100 C135.063,165.525 139.034,245.324 139.87,287.8677 " fill="none" id="Player-Tournoi" style="stroke: #A80036; stroke-width: 1.0;"/><text fill="#000000" font-family="sans-serif" font-size="13" lengthAdjust="spacingAndGlyphs" textLength="93" x="137" y="184.4951">are registered in</text><polygon fill="#000000" points="179,193.3516,182,199.3516,185,193.3516,179,193.3516" style="stroke: #000000; stroke-width: 1.0;"/><text fill="#000000" font-family="sans-serif" font-size="13" lengthAdjust="spacingAndGlyphs" textLength="5" x="104.7426" y="91.4466">*</text><text fill="#000000" font-family="sans-serif" font-size="13" lengthAdjust="spacingAndGlyphs" textLength="7" x="132.1213" y="277.345">1</text><!--link Federation to Tournoi--><path d="M287.523,210.285 C254.598,234.325 208.977,267.6358 177.218,290.8251 " fill="none" id="Federation-Tournoi" style="stroke: #A80036; stroke-width: 1.0;"/><polygon fill="#000000" points="254,247.6758,248,250.6758,254,253.6758,254,247.6758" style="stroke: #000000; stroke-width: 1.0;"/><text fill="#000000" font-family="sans-serif" font-size="13" lengthAdjust="spacingAndGlyphs" textLength="49" x="260" y="254.4951">contains</text><text fill="#000000" font-family="sans-serif" font-size="13" lengthAdjust="spacingAndGlyphs" textLength="7" x="271.9493" y="231.318">1</text><text fill="#000000" font-family="sans-serif" font-size="13" lengthAdjust="spacingAndGlyphs" textLength="5" x="185.0375" y="281.249">*</text><!--
@startuml CDD
skinparam Shadowing false
skinparam ClassAttributeIconSize 0

class Match{
    r : Resultat
}
class Player {
    nom : String
}
class Tournoi{
    nom : String
}
class Federation{
    nom : String
}
Match "*" - - "1" Tournoi : < is made of
Player "2" - - "1" Match : > played in
Player "*" - - "1" Tournoi : > are registered in
Federation "1" - - "*" Tournoi : > contains
@enduml

PlantUML version 1.2018.12(Sun Oct 21 12:15:15 CEST 2018)
(GPL source distribution)
Java Runtime: Java(TM) SE Runtime Environment
JVM: Java HotSpot(TM) 64-Bit Server VM
Java Version: 1.8.0_191-b12
Operating System: Windows 7
OS Version: 6.1
Default Encoding: Cp1252
Language: fr
Country: BE
--></g></svg>