<?xml version="1.0" encoding="UTF-8" standalone="no"?><svg xmlns="http://www.w3.org/2000/svg" xmlns:xlink="http://www.w3.org/1999/xlink" contentScriptType="application/ecmascript" contentStyleType="text/css" height="370px" preserveAspectRatio="none" style="width:347px;height:370px;" version="1.1" viewBox="0 0 347 370" width="347px" zoomAndPan="magnify"><defs/><g><rect fill="#FFFFFF" height="255.7578" style="stroke: #A80036; stroke-width: 1.0;" width="10" x="20.5" y="93.6094"/><rect fill="#FFFFFF" height="30" style="stroke: #A80036; stroke-width: 1.0;" width="10" x="214.5" y="115.9609"/><rect fill="#FFFFFF" height="30" style="stroke: #A80036; stroke-width: 1.0;" width="10" x="214.5" y="176.3125"/><rect fill="#FFFFFF" height="30" style="stroke: #A80036; stroke-width: 1.0;" width="10" x="214.5" y="236.6641"/><rect fill="#FFFFFF" height="36" style="stroke: #A80036; stroke-width: 1.0;" width="10" x="214.5" y="297.0156"/><line style="stroke: #A80036; stroke-width: 1.0; stroke-dasharray: 5.0,5.0;" x1="25" x2="25" y1="83.6094" y2="358.3672"/><line style="stroke: #A80036; stroke-width: 1.0; stroke-dasharray: 5.0,5.0;" x1="219.5" x2="219.5" y1="83.6094" y2="358.3672"/><text fill="#000000" font-family="sans-serif" font-size="14" lengthAdjust="spacingAndGlyphs" textLength="29" x="8" y="80.5332">User</text><ellipse cx="25.5" cy="13" fill="#FEFECE" rx="8" ry="8" style="stroke: #A80036; stroke-width: 2.0;"/><path d="M25.5,21 L25.5,48 M12.5,29 L38.5,29 M25.5,48 L12.5,63 M25.5,48 L38.5,63 " fill="none" style="stroke: #A80036; stroke-width: 2.0;"/><rect fill="#FEFECE" height="31.6094" style="stroke: #A80036; stroke-width: 1.5;" width="60" x="189.5" y="51"/><text fill="#000000" font-family="sans-serif" font-size="14" lengthAdjust="spacingAndGlyphs" textLength="46" x="196.5" y="72.5332">System</text><rect fill="#FFFFFF" height="255.7578" style="stroke: #A80036; stroke-width: 1.0;" width="10" x="20.5" y="93.6094"/><rect fill="#FFFFFF" height="30" style="stroke: #A80036; stroke-width: 1.0;" width="10" x="214.5" y="115.9609"/><rect fill="#FFFFFF" height="30" style="stroke: #A80036; stroke-width: 1.0;" width="10" x="214.5" y="176.3125"/><rect fill="#FFFFFF" height="30" style="stroke: #A80036; stroke-width: 1.0;" width="10" x="214.5" y="236.6641"/><rect fill="#FFFFFF" height="36" style="stroke: #A80036; stroke-width: 1.0;" width="10" x="214.5" y="297.0156"/><polygon fill="#A80036" points="202.5,111.9609,212.5,115.9609,202.5,119.9609,206.5,115.9609" style="stroke: #A80036; stroke-width: 1.0;"/><line style="stroke: #A80036; stroke-width: 1.0;" x1="30.5" x2="208.5" y1="115.9609" y2="115.9609"/><text fill="#000000" font-family="sans-serif" font-size="13" font-weight="bold" lengthAdjust="spacingAndGlyphs" textLength="7" x="37.5" y="111.1045">1</text><text fill="#000000" font-family="sans-serif" font-size="13" lengthAdjust="spacingAndGlyphs" textLength="116" x="48.5" y="111.1045">séléctionne joueur 1</text><polygon fill="#A80036" points="202.5,172.3125,212.5,176.3125,202.5,180.3125,206.5,176.3125" style="stroke: #A80036; stroke-width: 1.0;"/><line style="stroke: #A80036; stroke-width: 1.0;" x1="30.5" x2="208.5" y1="176.3125" y2="176.3125"/><text fill="#000000" font-family="sans-serif" font-size="13" font-weight="bold" lengthAdjust="spacingAndGlyphs" textLength="7" x="37.5" y="171.4561">2</text><text fill="#000000" font-family="sans-serif" font-size="13" lengthAdjust="spacingAndGlyphs" textLength="116" x="48.5" y="171.4561">séléctionne joueur 2</text><polygon fill="#A80036" points="202.5,232.6641,212.5,236.6641,202.5,240.6641,206.5,236.6641" style="stroke: #A80036; stroke-width: 1.0;"/><line style="stroke: #A80036; stroke-width: 1.0;" x1="30.5" x2="208.5" y1="236.6641" y2="236.6641"/><text fill="#000000" font-family="sans-serif" font-size="13" font-weight="bold" lengthAdjust="spacingAndGlyphs" textLength="7" x="37.5" y="231.8076">3</text><text fill="#000000" font-family="sans-serif" font-size="13" lengthAdjust="spacingAndGlyphs" textLength="136" x="48.5" y="231.8076">séléctionne un Résultat</text><polygon fill="#A80036" points="202.5,293.0156,212.5,297.0156,202.5,301.0156,206.5,297.0156" style="stroke: #A80036; stroke-width: 1.0;"/><line style="stroke: #A80036; stroke-width: 1.0;" x1="30.5" x2="208.5" y1="297.0156" y2="297.0156"/><text fill="#000000" font-family="sans-serif" font-size="13" font-weight="bold" lengthAdjust="spacingAndGlyphs" textLength="7" x="37.5" y="292.1592">4</text><text fill="#000000" font-family="sans-serif" font-size="13" lengthAdjust="spacingAndGlyphs" textLength="154" x="48.5" y="292.1592">clique sur le bouton "ADD"</text><line style="stroke: #A80036; stroke-width: 1.0;" x1="224.5" x2="266.5" y1="332.3672" y2="332.3672"/><line style="stroke: #A80036; stroke-width: 1.0;" x1="266.5" x2="266.5" y1="332.3672" y2="345.3672"/><line style="stroke: #A80036; stroke-width: 1.0;" x1="219.5" x2="266.5" y1="345.3672" y2="345.3672"/><polygon fill="#A80036" points="229.5,341.3672,219.5,345.3672,229.5,349.3672,225.5,345.3672" style="stroke: #A80036; stroke-width: 1.0;"/><text fill="#000000" font-family="sans-serif" font-size="13" font-weight="bold" lengthAdjust="spacingAndGlyphs" textLength="7" x="231.5" y="327.5107">5</text><text fill="#000000" font-family="sans-serif" font-size="13" lengthAdjust="spacingAndGlyphs" textLength="93" x="242.5" y="327.5107">ajoute un match</text><!--
@startuml SSD_TRNM
hide footbox
autonumber
skinparam shadowing false
actor User as u
participant System as s 
activate u
u -> s : séléctionne joueur 1
activate s
deactivate s 
u -> s : séléctionne joueur 2
activate s
deactivate s 
u -> s : séléctionne un Résultat
activate s
deactivate s 
u -> s : clique sur le bouton "ADD"
activate s
s -> s : ajoute un match
deactivate s
@enduml

PlantUML version 1.2018.12(Sun Oct 21 12:15:15 CEST 2018)
(GPL source distribution)
Java Runtime: Java(TM) SE Runtime Environment
JVM: Java HotSpot(TM) 64-Bit Server VM
Java Version: 1.8.0_191-b12
Operating System: Windows 7
OS Version: 6.1
Default Encoding: Cp1252
Language: fr
Country: BE
--></g></svg>