<?xml version="1.0" encoding="UTF-8" standalone="no"?><svg xmlns="http://www.w3.org/2000/svg" xmlns:xlink="http://www.w3.org/1999/xlink" contentScriptType="application/ecmascript" contentStyleType="text/css" height="586px" preserveAspectRatio="none" style="width:450px;height:586px;" version="1.1" viewBox="0 0 450 586" width="450px" zoomAndPan="magnify"><defs/><g><rect fill="#FFFFFF" height="471.6719" style="stroke: #A80036; stroke-width: 1.0;" width="10" x="35.5" y="93.6094"/><rect fill="#FFFFFF" height="30" style="stroke: #A80036; stroke-width: 1.0;" width="10" x="256.5" y="141.3125"/><rect fill="#FFFFFF" height="30" style="stroke: #A80036; stroke-width: 1.0;" width="10" x="256.5" y="217.5"/><rect fill="#FFFFFF" height="30" style="stroke: #A80036; stroke-width: 1.0;" width="10" x="256.5" y="293.6875"/><rect fill="#FFFFFF" height="104.7031" style="stroke: #A80036; stroke-width: 1.0;" width="10" x="256.5" y="361.0391"/><rect fill="#FFFFFF" height="30" style="stroke: #A80036; stroke-width: 1.0;" width="10" x="256.5" y="519.2813"/><rect fill="#FFFFFF" height="231.0781" style="stroke: #000000; stroke-width: 2.0;" width="288.5" x="13" y="100.6094"/><rect fill="#FFFFFF" height="76.1875" style="stroke: none; stroke-width: 1.0;" width="288.5" x="13" y="179.3125"/><rect fill="#FFFFFF" height="76.1875" style="stroke: none; stroke-width: 1.0;" width="288.5" x="13" y="255.5"/><rect fill="#FFFFFF" height="137.8906" style="stroke: #000000; stroke-width: 2.0;" width="425.5" x="13" y="419.3906"/><rect fill="#FFFFFF" height="76.1875" style="stroke: none; stroke-width: 1.0;" width="425.5" x="13" y="481.0938"/><line style="stroke: #A80036; stroke-width: 1.0; stroke-dasharray: 5.0,5.0;" x1="40" x2="40" y1="83.6094" y2="574.2813"/><line style="stroke: #A80036; stroke-width: 1.0; stroke-dasharray: 5.0,5.0;" x1="261.5" x2="261.5" y1="83.6094" y2="574.2813"/><text fill="#000000" font-family="sans-serif" font-size="14" lengthAdjust="spacingAndGlyphs" textLength="29" x="23" y="80.5332">User</text><ellipse cx="40.5" cy="13" fill="#FEFECE" rx="8" ry="8" style="stroke: #A80036; stroke-width: 2.0;"/><path d="M40.5,21 L40.5,48 M27.5,29 L53.5,29 M40.5,48 L27.5,63 M40.5,48 L53.5,63 " fill="none" style="stroke: #A80036; stroke-width: 2.0;"/><rect fill="#FEFECE" height="31.6094" style="stroke: #A80036; stroke-width: 1.5;" width="60" x="231.5" y="51"/><text fill="#000000" font-family="sans-serif" font-size="14" lengthAdjust="spacingAndGlyphs" textLength="46" x="238.5" y="72.5332">System</text><rect fill="#FFFFFF" height="471.6719" style="stroke: #A80036; stroke-width: 1.0;" width="10" x="35.5" y="93.6094"/><rect fill="#FFFFFF" height="30" style="stroke: #A80036; stroke-width: 1.0;" width="10" x="256.5" y="141.3125"/><rect fill="#FFFFFF" height="30" style="stroke: #A80036; stroke-width: 1.0;" width="10" x="256.5" y="217.5"/><rect fill="#FFFFFF" height="30" style="stroke: #A80036; stroke-width: 1.0;" width="10" x="256.5" y="293.6875"/><rect fill="#FFFFFF" height="104.7031" style="stroke: #A80036; stroke-width: 1.0;" width="10" x="256.5" y="361.0391"/><rect fill="#FFFFFF" height="30" style="stroke: #A80036; stroke-width: 1.0;" width="10" x="256.5" y="519.2813"/><path d="M13,100.6094 L74,100.6094 L74,108.6094 L64,118.6094 L13,118.6094 L13,100.6094 " fill="#EEEEEE" style="stroke: #000000; stroke-width: 1.0;"/><rect fill="none" height="231.0781" style="stroke: #000000; stroke-width: 2.0;" width="288.5" x="13" y="100.6094"/><text fill="#000000" font-family="sans-serif" font-size="13" font-weight="bold" lengthAdjust="spacingAndGlyphs" textLength="16" x="28" y="115.1045">alt</text><text fill="#000000" font-family="sans-serif" font-size="11" font-weight="bold" lengthAdjust="spacingAndGlyphs" textLength="97" x="89" y="114.0283">[Modifie joueur 1]</text><polygon fill="#A80036" points="244.5,137.3125,254.5,141.3125,244.5,145.3125,248.5,141.3125" style="stroke: #A80036; stroke-width: 1.0;"/><line style="stroke: #A80036; stroke-width: 1.0;" x1="45.5" x2="250.5" y1="141.3125" y2="141.3125"/><text fill="#000000" font-family="sans-serif" font-size="13" font-weight="bold" lengthAdjust="spacingAndGlyphs" textLength="7" x="52.5" y="136.4561">1</text><text fill="#000000" font-family="sans-serif" font-size="13" lengthAdjust="spacingAndGlyphs" textLength="114" x="63.5" y="136.4561">Mise à jour joueur 1</text><line style="stroke: #000000; stroke-width: 1.0; stroke-dasharray: 2.0,2.0;" x1="13" x2="301.5" y1="180.3125" y2="180.3125"/><text fill="#000000" font-family="sans-serif" font-size="11" font-weight="bold" lengthAdjust="spacingAndGlyphs" textLength="97" x="18" y="191.7314">[Modifie joueur 2]</text><polygon fill="#A80036" points="244.5,213.5,254.5,217.5,244.5,221.5,248.5,217.5" style="stroke: #A80036; stroke-width: 1.0;"/><line style="stroke: #A80036; stroke-width: 1.0;" x1="45.5" x2="250.5" y1="217.5" y2="217.5"/><text fill="#000000" font-family="sans-serif" font-size="13" font-weight="bold" lengthAdjust="spacingAndGlyphs" textLength="7" x="52.5" y="212.6436">2</text><text fill="#000000" font-family="sans-serif" font-size="13" lengthAdjust="spacingAndGlyphs" textLength="114" x="63.5" y="212.6436">Mise à jour joueur 2</text><line style="stroke: #000000; stroke-width: 1.0; stroke-dasharray: 2.0,2.0;" x1="13" x2="301.5" y1="256.5" y2="256.5"/><text fill="#000000" font-family="sans-serif" font-size="11" font-weight="bold" lengthAdjust="spacingAndGlyphs" textLength="97" x="18" y="267.9189">[Modifie Résultat]</text><polygon fill="#A80036" points="244.5,289.6875,254.5,293.6875,244.5,297.6875,248.5,293.6875" style="stroke: #A80036; stroke-width: 1.0;"/><line style="stroke: #A80036; stroke-width: 1.0;" x1="45.5" x2="250.5" y1="293.6875" y2="293.6875"/><text fill="#000000" font-family="sans-serif" font-size="13" font-weight="bold" lengthAdjust="spacingAndGlyphs" textLength="7" x="52.5" y="288.8311">3</text><text fill="#000000" font-family="sans-serif" font-size="13" lengthAdjust="spacingAndGlyphs" textLength="111" x="63.5" y="288.8311">Mise à jour résultat</text><polygon fill="#A80036" points="244.5,357.0391,254.5,361.0391,244.5,365.0391,248.5,361.0391" style="stroke: #A80036; stroke-width: 1.0;"/><line style="stroke: #A80036; stroke-width: 1.0;" x1="45.5" x2="250.5" y1="361.0391" y2="361.0391"/><text fill="#000000" font-family="sans-serif" font-size="13" font-weight="bold" lengthAdjust="spacingAndGlyphs" textLength="7" x="52.5" y="356.1826">4</text><text fill="#000000" font-family="sans-serif" font-size="13" lengthAdjust="spacingAndGlyphs" textLength="181" x="63.5" y="356.1826">Clique sur le bouton "UPDATE"</text><line style="stroke: #A80036; stroke-width: 1.0;" x1="266.5" x2="308.5" y1="391.3906" y2="391.3906"/><line style="stroke: #A80036; stroke-width: 1.0;" x1="308.5" x2="308.5" y1="391.3906" y2="404.3906"/><line style="stroke: #A80036; stroke-width: 1.0;" x1="267.5" x2="308.5" y1="404.3906" y2="404.3906"/><polygon fill="#A80036" points="277.5,400.3906,267.5,404.3906,277.5,408.3906,273.5,404.3906" style="stroke: #A80036; stroke-width: 1.0;"/><text fill="#000000" font-family="sans-serif" font-size="13" font-weight="bold" lengthAdjust="spacingAndGlyphs" textLength="7" x="273.5" y="386.5342">5</text><text fill="#000000" font-family="sans-serif" font-size="13" lengthAdjust="spacingAndGlyphs" textLength="142" x="284.5" y="386.5342">Vérification Entrée valide</text><path d="M13,419.3906 L74,419.3906 L74,427.3906 L64,437.3906 L13,437.3906 L13,419.3906 " fill="#EEEEEE" style="stroke: #000000; stroke-width: 1.0;"/><rect fill="none" height="137.8906" style="stroke: #000000; stroke-width: 2.0;" width="425.5" x="13" y="419.3906"/><text fill="#000000" font-family="sans-serif" font-size="13" font-weight="bold" lengthAdjust="spacingAndGlyphs" textLength="16" x="28" y="433.8857">alt</text><text fill="#000000" font-family="sans-serif" font-size="11" font-weight="bold" lengthAdjust="spacingAndGlyphs" textLength="22" x="89" y="432.8096">[ok]</text><line style="stroke: #A80036; stroke-width: 1.0;" x1="266.5" x2="308.5" y1="465.0938" y2="465.0938"/><line style="stroke: #A80036; stroke-width: 1.0;" x1="308.5" x2="308.5" y1="465.0938" y2="478.0938"/><line style="stroke: #A80036; stroke-width: 1.0;" x1="261.5" x2="308.5" y1="478.0938" y2="478.0938"/><polygon fill="#A80036" points="271.5,474.0938,261.5,478.0938,271.5,482.0938,267.5,478.0938" style="stroke: #A80036; stroke-width: 1.0;"/><text fill="#000000" font-family="sans-serif" font-size="13" font-weight="bold" lengthAdjust="spacingAndGlyphs" textLength="7" x="273.5" y="460.2373">6</text><text fill="#000000" font-family="sans-serif" font-size="13" lengthAdjust="spacingAndGlyphs" textLength="142" x="284.5" y="460.2373">Mise à jour des données</text><line style="stroke: #000000; stroke-width: 1.0; stroke-dasharray: 2.0,2.0;" x1="13" x2="438.5" y1="482.0938" y2="482.0938"/><text fill="#000000" font-family="sans-serif" font-size="11" font-weight="bold" lengthAdjust="spacingAndGlyphs" textLength="43" x="18" y="493.5127">[not ok]</text><polygon fill="#A80036" points="56.5,515.2813,46.5,519.2813,56.5,523.2813,52.5,519.2813" style="stroke: #A80036; stroke-width: 1.0;"/><line style="stroke: #A80036; stroke-width: 1.0;" x1="50.5" x2="255.5" y1="519.2813" y2="519.2813"/><text fill="#000000" font-family="sans-serif" font-size="13" font-weight="bold" lengthAdjust="spacingAndGlyphs" textLength="7" x="62.5" y="514.4248">7</text><text fill="#000000" font-family="sans-serif" font-size="13" lengthAdjust="spacingAndGlyphs" textLength="99" x="73.5" y="514.4248">Message d'erreur</text><!--
@startuml SSD_MATCH_UPD
hide footbox
autonumber
skinparam shadowing false
actor User as u
participant System as s 
activate u
alt Modifie joueur 1
    u -> s: Mise à jour joueur 1
    activate s
    deactivate s
else Modifie joueur 2
    u -> s:  Mise à jour joueur 2
    activate s
    deactivate s
else Modifie Résultat
    u -> s:  Mise à jour résultat
    activate s
    deactivate s
end
u -> s : Clique sur le bouton "UPDATE"
activate s
s -> s : Vérification Entrée valide
alt ok
    s -> s : Mise à jour des données
    deactivate s
else not ok
    s -> u : Message d'erreur
    activate s
    deactivate s
end
@enduml

PlantUML version 1.2018.12(Sun Oct 21 12:15:15 CEST 2018)
(GPL source distribution)
Java Runtime: Java(TM) SE Runtime Environment
JVM: Java HotSpot(TM) 64-Bit Server VM
Java Version: 1.8.0_191-b12
Operating System: Windows 7
OS Version: 6.1
Default Encoding: Cp1252
Language: fr
Country: BE
--></g></svg>