<?xml version="1.0" encoding="UTF-8" standalone="no"?><svg xmlns="http://www.w3.org/2000/svg" xmlns:xlink="http://www.w3.org/1999/xlink" contentScriptType="application/ecmascript" contentStyleType="text/css" height="753px" preserveAspectRatio="none" style="width:1338px;height:753px;" version="1.1" viewBox="0 0 1338 753" width="1338px" zoomAndPan="magnify"><defs/><g><rect fill="#FFFFFF" height="639.3516" style="stroke: #A80036; stroke-width: 1.0;" width="10" x="45.5" y="93.6094"/><rect fill="#FFFFFF" height="353.1641" style="stroke: #A80036; stroke-width: 1.0;" width="10" x="325.5" y="93.6094"/><rect fill="#FFFFFF" height="512.9453" style="stroke: #A80036; stroke-width: 1.0;" width="10" x="947.5" y="220.0156"/><rect fill="#FFFFFF" height="30.3516" style="stroke: #A80036; stroke-width: 1.0;" width="10" x="1091.5" y="115.9609"/><rect fill="#FFFFFF" height="166.0547" style="stroke: #A80036; stroke-width: 1.0;" width="10" x="1091.5" y="280.7188"/><rect fill="#FFFFFF" height="255.8359" style="stroke: #000000; stroke-width: 2.0;" width="1147" x="13" y="469.125"/><rect fill="#FFFFFF" height="189.7813" style="stroke: none; stroke-width: 1.0;" width="1147" x="13" y="535.1797"/><rect fill="#FFFFFF" height="129.5938" style="stroke: #000000; stroke-width: 2.0;" width="1127" x="23" y="588.3672"/><rect fill="#FFFFFF" height="63.5391" style="stroke: none; stroke-width: 1.0;" width="1127" x="23" y="654.4219"/><line style="stroke: #A80036; stroke-width: 1.0; stroke-dasharray: 5.0,5.0;" x1="50" x2="50" y1="83.6094" y2="741.9609"/><line style="stroke: #A80036; stroke-width: 1.0; stroke-dasharray: 5.0,5.0;" x1="330.5" x2="330.5" y1="83.6094" y2="741.9609"/><line style="stroke: #A80036; stroke-width: 1.0; stroke-dasharray: 5.0,5.0;" x1="952" x2="952" y1="83.6094" y2="741.9609"/><line style="stroke: #A80036; stroke-width: 1.0; stroke-dasharray: 5.0,5.0;" x1="1096" x2="1096" y1="83.6094" y2="741.9609"/><text fill="#000000" font-family="sans-serif" font-size="14" lengthAdjust="spacingAndGlyphs" textLength="29" x="33" y="80.5332">User</text><ellipse cx="50.5" cy="13" fill="#FEFECE" rx="8" ry="8" style="stroke: #A80036; stroke-width: 2.0;"/><path d="M50.5,21 L50.5,48 M37.5,29 L63.5,29 M50.5,48 L37.5,63 M50.5,48 L63.5,63 " fill="none" style="stroke: #A80036; stroke-width: 2.0;"/><rect fill="#FEFECE" height="49.2188" style="stroke: #A80036; stroke-width: 1.5;" width="56" x="302.5" y="33.3906"/><text fill="#000000" font-family="sans-serif" font-size="14" font-style="italic" lengthAdjust="spacingAndGlyphs" textLength="42" x="309.5" y="54.3906">«view»</text><text fill="#000000" font-family="sans-serif" font-size="14" lengthAdjust="spacingAndGlyphs" textLength="33" x="314" y="72">:View</text><rect fill="#FEFECE" height="49.2188" style="stroke: #A80036; stroke-width: 1.5;" width="49" x="928" y="33.3906"/><text fill="#000000" font-family="sans-serif" font-size="14" font-style="italic" lengthAdjust="spacingAndGlyphs" textLength="35" x="935" y="54.3906">«ctrl»</text><text fill="#000000" font-family="sans-serif" font-size="14" lengthAdjust="spacingAndGlyphs" textLength="26" x="939.5" y="72">:Ctrl</text><rect fill="#FEFECE" height="49.2188" style="stroke: #A80036; stroke-width: 1.5;" width="87" x="1053" y="33.3906"/><text fill="#000000" font-family="sans-serif" font-size="14" font-style="italic" lengthAdjust="spacingAndGlyphs" textLength="50" x="1071.5" y="54.3906">«entity»</text><text fill="#000000" font-family="sans-serif" font-size="14" lengthAdjust="spacingAndGlyphs" textLength="73" x="1060" y="72">:Federation</text><rect fill="#FFFFFF" height="639.3516" style="stroke: #A80036; stroke-width: 1.0;" width="10" x="45.5" y="93.6094"/><rect fill="#FFFFFF" height="353.1641" style="stroke: #A80036; stroke-width: 1.0;" width="10" x="325.5" y="93.6094"/><rect fill="#FFFFFF" height="512.9453" style="stroke: #A80036; stroke-width: 1.0;" width="10" x="947.5" y="220.0156"/><rect fill="#FFFFFF" height="30.3516" style="stroke: #A80036; stroke-width: 1.0;" width="10" x="1091.5" y="115.9609"/><rect fill="#FFFFFF" height="166.0547" style="stroke: #A80036; stroke-width: 1.0;" width="10" x="1091.5" y="280.7188"/><polygon fill="#A80036" points="1079.5,111.9609,1089.5,115.9609,1079.5,119.9609,1083.5,115.9609" style="stroke: #A80036; stroke-width: 1.0;"/><line style="stroke: #A80036; stroke-width: 1.0;" x1="335.5" x2="1085.5" y1="115.9609" y2="115.9609"/><text fill="#000000" font-family="sans-serif" font-size="13" font-weight="bold" lengthAdjust="spacingAndGlyphs" textLength="7" x="342.5" y="111.1045">1</text><text fill="#000000" font-family="sans-serif" font-size="13" lengthAdjust="spacingAndGlyphs" textLength="184" x="353.5" y="111.1045">getTournoisName():List&lt;String&gt;</text><polygon fill="#A80036" points="346.5,142.3125,336.5,146.3125,346.5,150.3125,342.5,146.3125" style="stroke: #A80036; stroke-width: 1.0;"/><line style="stroke: #A80036; stroke-width: 1.0; stroke-dasharray: 2.0,2.0;" x1="340.5" x2="1095.5" y1="146.3125" y2="146.3125"/><text fill="#000000" font-family="sans-serif" font-size="13" font-weight="bold" lengthAdjust="spacingAndGlyphs" textLength="7" x="352.5" y="141.4561">2</text><text fill="#000000" font-family="sans-serif" font-size="13" lengthAdjust="spacingAndGlyphs" textLength="79" x="363.5" y="141.4561">t:List&lt;String&gt;</text><line style="stroke: #A80036; stroke-width: 1.0;" x1="335.5" x2="377.5" y1="176.6641" y2="176.6641"/><line style="stroke: #A80036; stroke-width: 1.0;" x1="377.5" x2="377.5" y1="176.6641" y2="189.6641"/><line style="stroke: #A80036; stroke-width: 1.0;" x1="336.5" x2="377.5" y1="189.6641" y2="189.6641"/><polygon fill="#A80036" points="346.5,185.6641,336.5,189.6641,346.5,193.6641,342.5,189.6641" style="stroke: #A80036; stroke-width: 1.0;"/><text fill="#000000" font-family="sans-serif" font-size="13" font-weight="bold" lengthAdjust="spacingAndGlyphs" textLength="7" x="342.5" y="171.8076">3</text><text fill="#000000" font-family="sans-serif" font-size="13" lengthAdjust="spacingAndGlyphs" textLength="74" x="353.5" y="171.8076">fillTrnmList(t)</text><polygon fill="#A80036" points="313.5,216.0156,323.5,220.0156,313.5,224.0156,317.5,220.0156" style="stroke: #A80036; stroke-width: 1.0;"/><line style="stroke: #A80036; stroke-width: 1.0;" x1="55.5" x2="319.5" y1="220.0156" y2="220.0156"/><text fill="#000000" font-family="sans-serif" font-size="13" font-weight="bold" lengthAdjust="spacingAndGlyphs" textLength="7" x="62.5" y="215.1592">4</text><text fill="#000000" font-family="sans-serif" font-size="13" lengthAdjust="spacingAndGlyphs" textLength="219" x="73.5" y="215.1592">setSelectionListViewTrnm(String tSel)</text><polygon fill="#A80036" points="935.5,246.3672,945.5,250.3672,935.5,254.3672,939.5,250.3672" style="stroke: #A80036; stroke-width: 1.0;"/><line style="stroke: #A80036; stroke-width: 1.0;" x1="335.5" x2="941.5" y1="250.3672" y2="250.3672"/><text fill="#000000" font-family="sans-serif" font-size="13" font-weight="bold" lengthAdjust="spacingAndGlyphs" textLength="7" x="342.5" y="245.5107">5</text><text fill="#000000" font-family="sans-serif" font-size="13" lengthAdjust="spacingAndGlyphs" textLength="149" x="353.5" y="245.5107">TrnmSelected(indTSel:int)</text><polygon fill="#A80036" points="1079.5,276.7188,1089.5,280.7188,1079.5,284.7188,1083.5,280.7188" style="stroke: #A80036; stroke-width: 1.0;"/><line style="stroke: #A80036; stroke-width: 1.0;" x1="957.5" x2="1085.5" y1="280.7188" y2="280.7188"/><text fill="#000000" font-family="sans-serif" font-size="13" font-weight="bold" lengthAdjust="spacingAndGlyphs" textLength="7" x="964.5" y="275.8623">6</text><text fill="#000000" font-family="sans-serif" font-size="13" lengthAdjust="spacingAndGlyphs" textLength="104" x="975.5" y="275.8623">select(indTSel:int)</text><line style="stroke: #A80036; stroke-width: 1.0;" x1="1101.5" x2="1143.5" y1="311.0703" y2="311.0703"/><line style="stroke: #A80036; stroke-width: 1.0;" x1="1143.5" x2="1143.5" y1="311.0703" y2="324.0703"/><line style="stroke: #A80036; stroke-width: 1.0;" x1="1102.5" x2="1143.5" y1="324.0703" y2="324.0703"/><polygon fill="#A80036" points="1112.5,320.0703,1102.5,324.0703,1112.5,328.0703,1108.5,324.0703" style="stroke: #A80036; stroke-width: 1.0;"/><text fill="#000000" font-family="sans-serif" font-size="13" font-weight="bold" lengthAdjust="spacingAndGlyphs" textLength="7" x="1108.5" y="306.2139">7</text><text fill="#000000" font-family="sans-serif" font-size="13" lengthAdjust="spacingAndGlyphs" textLength="207" x="1119.5" y="306.2139">setNumTournoiSelected(indTSel:int)</text><line style="stroke: #A80036; stroke-width: 1.0;" x1="335.5" x2="377.5" y1="354.4219" y2="354.4219"/><line style="stroke: #A80036; stroke-width: 1.0;" x1="377.5" x2="377.5" y1="354.4219" y2="367.4219"/><line style="stroke: #A80036; stroke-width: 1.0;" x1="336.5" x2="377.5" y1="367.4219" y2="367.4219"/><polygon fill="#A80036" points="346.5,363.4219,336.5,367.4219,346.5,371.4219,342.5,367.4219" style="stroke: #A80036; stroke-width: 1.0;"/><text fill="#000000" font-family="sans-serif" font-size="13" font-weight="bold" lengthAdjust="spacingAndGlyphs" textLength="7" x="342.5" y="349.5654">8</text><text fill="#000000" font-family="sans-serif" font-size="13" lengthAdjust="spacingAndGlyphs" textLength="270" x="353.5" y="349.5654">displayLstPL(selectedTrnm().getPlayerName())</text><line style="stroke: #A80036; stroke-width: 1.0;" x1="335.5" x2="377.5" y1="397.7734" y2="397.7734"/><line style="stroke: #A80036; stroke-width: 1.0;" x1="377.5" x2="377.5" y1="397.7734" y2="410.7734"/><line style="stroke: #A80036; stroke-width: 1.0;" x1="336.5" x2="377.5" y1="410.7734" y2="410.7734"/><polygon fill="#A80036" points="346.5,406.7734,336.5,410.7734,346.5,414.7734,342.5,410.7734" style="stroke: #A80036; stroke-width: 1.0;"/><text fill="#000000" font-family="sans-serif" font-size="13" font-weight="bold" lengthAdjust="spacingAndGlyphs" textLength="7" x="342.5" y="392.917">9</text><text fill="#000000" font-family="sans-serif" font-size="13" lengthAdjust="spacingAndGlyphs" textLength="240" x="353.5" y="392.917">displayMatch(selectedTrnm().getMatchs()</text><line style="stroke: #A80036; stroke-width: 1.0;" x1="335.5" x2="377.5" y1="446.125" y2="446.125"/><line style="stroke: #A80036; stroke-width: 1.0;" x1="377.5" x2="377.5" y1="446.125" y2="459.125"/><line style="stroke: #A80036; stroke-width: 1.0;" x1="330.5" x2="377.5" y1="459.125" y2="459.125"/><polygon fill="#A80036" points="340.5,455.125,330.5,459.125,340.5,463.125,336.5,459.125" style="stroke: #A80036; stroke-width: 1.0;"/><text fill="#000000" font-family="sans-serif" font-size="13" font-weight="bold" lengthAdjust="spacingAndGlyphs" textLength="14" x="342.5" y="441.2686">10</text><text fill="#000000" font-family="sans-serif" font-size="13" lengthAdjust="spacingAndGlyphs" textLength="580" x="360.5" y="441.2686">fillCbbx(selectedTrnmPl1:List&lt;String&gt;,selectedTrnmpl2:List&lt;String&gt;,selectedTrnmRes:List&lt;String&gt;);</text><path d="M13,469.125 L74,469.125 L74,477.125 L64,487.125 L13,487.125 L13,469.125 " fill="#EEEEEE" style="stroke: #000000; stroke-width: 1.0;"/><rect fill="none" height="255.8359" style="stroke: #000000; stroke-width: 2.0;" width="1147" x="13" y="469.125"/><text fill="#000000" font-family="sans-serif" font-size="13" font-weight="bold" lengthAdjust="spacingAndGlyphs" textLength="16" x="28" y="483.6201">alt</text><text fill="#000000" font-family="sans-serif" font-size="11" font-weight="bold" lengthAdjust="spacingAndGlyphs" textLength="101" x="89" y="482.5439">[ajouter un match]</text><rect fill="#FFFFFF" height="42.7031" style="stroke: #000000; stroke-width: 2.0;" width="1113" x="30" y="487.4766"/><polygon fill="#EEEEEE" points="30,487.4766,92,487.4766,92,495.4766,82,505.4766,30,505.4766,30,487.4766" style="stroke: #000000; stroke-width: 2.0;"/><text fill="#000000" font-family="sans-serif" font-size="13" font-weight="bold" lengthAdjust="spacingAndGlyphs" textLength="17" x="43" y="502.9717">ref</text><text fill="#000000" font-family="sans-serif" font-size="13" lengthAdjust="spacingAndGlyphs" textLength="104" x="534.5" y="522.9717">SD_MATCH_ADD</text><line style="stroke: #000000; stroke-width: 1.0; stroke-dasharray: 2.0,2.0;" x1="13" x2="1160" y1="536.1797" y2="536.1797"/><text fill="#000000" font-family="sans-serif" font-size="11" font-weight="bold" lengthAdjust="spacingAndGlyphs" textLength="127" x="18" y="547.5986">[selectionne un match]</text><polygon fill="#A80036" points="318.5,569.3672,328.5,573.3672,318.5,577.3672,322.5,573.3672" style="stroke: #A80036; stroke-width: 1.0;"/><line style="stroke: #A80036; stroke-width: 1.0;" x1="55.5" x2="324.5" y1="573.3672" y2="573.3672"/><text fill="#000000" font-family="sans-serif" font-size="13" font-weight="bold" lengthAdjust="spacingAndGlyphs" textLength="14" x="62.5" y="568.5107">11</text><text fill="#000000" font-family="sans-serif" font-size="13" lengthAdjust="spacingAndGlyphs" textLength="233" x="80.5" y="568.5107">setSelectionListViewMatch(String mSel)</text><path d="M23,588.3672 L84,588.3672 L84,596.3672 L74,606.3672 L23,606.3672 L23,588.3672 " fill="#EEEEEE" style="stroke: #000000; stroke-width: 1.0;"/><rect fill="none" height="129.5938" style="stroke: #000000; stroke-width: 2.0;" width="1127" x="23" y="588.3672"/><text fill="#000000" font-family="sans-serif" font-size="13" font-weight="bold" lengthAdjust="spacingAndGlyphs" textLength="16" x="38" y="602.8623">alt</text><text fill="#000000" font-family="sans-serif" font-size="11" font-weight="bold" lengthAdjust="spacingAndGlyphs" textLength="83" x="99" y="601.7861">[update match]</text><rect fill="#FFFFFF" height="42.7031" style="stroke: #000000; stroke-width: 2.0;" width="1113" x="30" y="606.7188"/><polygon fill="#EEEEEE" points="30,606.7188,92,606.7188,92,614.7188,82,624.7188,30,624.7188,30,606.7188" style="stroke: #000000; stroke-width: 2.0;"/><text fill="#000000" font-family="sans-serif" font-size="13" font-weight="bold" lengthAdjust="spacingAndGlyphs" textLength="17" x="43" y="622.2139">ref</text><text fill="#000000" font-family="sans-serif" font-size="13" lengthAdjust="spacingAndGlyphs" textLength="104" x="534.5" y="642.2139">SD_MATCH_UPD</text><line style="stroke: #000000; stroke-width: 1.0; stroke-dasharray: 2.0,2.0;" x1="23" x2="1150" y1="655.4219" y2="655.4219"/><text fill="#000000" font-family="sans-serif" font-size="11" font-weight="bold" lengthAdjust="spacingAndGlyphs" textLength="80" x="28" y="666.8408">[Delete match]</text><rect fill="#FFFFFF" height="42.7031" style="stroke: #000000; stroke-width: 2.0;" width="1113" x="30" y="670.2578"/><polygon fill="#EEEEEE" points="30,670.2578,92,670.2578,92,678.2578,82,688.2578,30,688.2578,30,670.2578" style="stroke: #000000; stroke-width: 2.0;"/><text fill="#000000" font-family="sans-serif" font-size="13" font-weight="bold" lengthAdjust="spacingAndGlyphs" textLength="17" x="43" y="685.7529">ref</text><text fill="#000000" font-family="sans-serif" font-size="13" lengthAdjust="spacingAndGlyphs" textLength="102" x="535.5" y="705.7529">SD_MATCH_DEL</text><!--
@startuml SD_TRNM
hide footbox
autonumber
skinparam shadowing false
actor User as u
participant ":View" as v <<view>>
participant ":Ctrl" as c <<ctrl>>
participant ":Federation" as f <<entity>>
activate v
activate u
v -> f : getTournoisName():List<String>
activate f
f - -> v: t:List<String>
deactivate f
v->v :fillTrnmList(t)
u->v:setSelectionListViewTrnm(String tSel)
activate c
v -> c : TrnmSelected(indTSel:int)
c-> f : select(indTSel:int)
activate f
f -> f : setNumTournoiSelected(indTSel:int)
v -> v : displayLstPL(selectedTrnm().getPlayerName())
v -> v : displayMatch(selectedTrnm().getMatchs()
v -> v : fillCbbx(selectedTrnmPl1:List<String>,selectedTrnmpl2:List<String>,selectedTrnmRes:List<String>);
deactivate f
deactivate v
alt ajouter un match
    ref over u,v,c,f : SD_MATCH_ADD
else selectionne un match
    u ->v : setSelectionListViewMatch(String mSel)
    alt update match
        ref over u, v, c, f : SD_MATCH_UPD
    else Delete match
        ref over u, v, c, f : SD_MATCH_DEL
    end
end

@enduml

PlantUML version 1.2018.12(Sun Oct 21 12:15:15 CEST 2018)
(GPL source distribution)
Java Runtime: Java(TM) SE Runtime Environment
JVM: Java HotSpot(TM) Client VM
Java Version: 1.8.0_151-b12
Operating System: Windows 10
OS Version: 10.0
Default Encoding: Cp1252
Language: fr
Country: BE
--></g></svg>