<?xml version="1.0" encoding="UTF-8" standalone="no"?><svg xmlns="http://www.w3.org/2000/svg" xmlns:xlink="http://www.w3.org/1999/xlink" contentScriptType="application/ecmascript" contentStyleType="text/css" height="371px" preserveAspectRatio="none" style="width:546px;height:371px;" version="1.1" viewBox="0 0 546 371" width="546px" zoomAndPan="magnify"><defs/><g><rect fill="#FFFFFF" height="257.2969" style="stroke: #A80036; stroke-width: 1.0;" width="10" x="35.5" y="93.6094"/><rect fill="#FFFFFF" height="30.3516" style="stroke: #A80036; stroke-width: 1.0;" width="10" x="341.5" y="115.9609"/><rect fill="#FFFFFF" height="36" style="stroke: #A80036; stroke-width: 1.0;" width="10" x="341.5" y="202.0156"/><rect fill="#FFFFFF" height="36" style="stroke: #A80036; stroke-width: 1.0;" width="10" x="341.5" y="291.5547"/><rect fill="#FFFFFF" height="181.5938" style="stroke: #000000; stroke-width: 2.0;" width="521.5" x="13" y="161.3125"/><rect fill="#FFFFFF" height="89.5391" style="stroke: none; stroke-width: 1.0;" width="521.5" x="13" y="253.3672"/><line style="stroke: #A80036; stroke-width: 1.0; stroke-dasharray: 5.0,5.0;" x1="40" x2="40" y1="83.6094" y2="359.9063"/><line style="stroke: #A80036; stroke-width: 1.0; stroke-dasharray: 5.0,5.0;" x1="346.5" x2="346.5" y1="83.6094" y2="359.9063"/><text fill="#000000" font-family="sans-serif" font-size="14" lengthAdjust="spacingAndGlyphs" textLength="29" x="23" y="80.5332">User</text><ellipse cx="40.5" cy="13" fill="#FEFECE" rx="8" ry="8" style="stroke: #A80036; stroke-width: 2.0;"/><path d="M40.5,21 L40.5,48 M27.5,29 L53.5,29 M40.5,48 L27.5,63 M40.5,48 L53.5,63 " fill="none" style="stroke: #A80036; stroke-width: 2.0;"/><rect fill="#FEFECE" height="31.6094" style="stroke: #A80036; stroke-width: 1.5;" width="60" x="316.5" y="51"/><text fill="#000000" font-family="sans-serif" font-size="14" lengthAdjust="spacingAndGlyphs" textLength="46" x="323.5" y="72.5332">System</text><rect fill="#FFFFFF" height="257.2969" style="stroke: #A80036; stroke-width: 1.0;" width="10" x="35.5" y="93.6094"/><rect fill="#FFFFFF" height="30.3516" style="stroke: #A80036; stroke-width: 1.0;" width="10" x="341.5" y="115.9609"/><rect fill="#FFFFFF" height="36" style="stroke: #A80036; stroke-width: 1.0;" width="10" x="341.5" y="202.0156"/><rect fill="#FFFFFF" height="36" style="stroke: #A80036; stroke-width: 1.0;" width="10" x="341.5" y="291.5547"/><polygon fill="#A80036" points="329.5,111.9609,339.5,115.9609,329.5,119.9609,333.5,115.9609" style="stroke: #A80036; stroke-width: 1.0;"/><line style="stroke: #A80036; stroke-width: 1.0;" x1="45.5" x2="335.5" y1="115.9609" y2="115.9609"/><text fill="#000000" font-family="sans-serif" font-size="13" font-weight="bold" lengthAdjust="spacingAndGlyphs" textLength="7" x="52.5" y="111.1045">1</text><text fill="#000000" font-family="sans-serif" font-size="13" lengthAdjust="spacingAndGlyphs" textLength="177" x="63.5" y="111.1045">clique sur le bouton "DELETE"</text><polygon fill="#A80036" points="56.5,142.3125,46.5,146.3125,56.5,150.3125,52.5,146.3125" style="stroke: #A80036; stroke-width: 1.0;"/><line style="stroke: #A80036; stroke-width: 1.0;" x1="50.5" x2="345.5" y1="146.3125" y2="146.3125"/><text fill="#000000" font-family="sans-serif" font-size="13" font-weight="bold" lengthAdjust="spacingAndGlyphs" textLength="7" x="62.5" y="141.4561">2</text><text fill="#000000" font-family="sans-serif" font-size="13" lengthAdjust="spacingAndGlyphs" textLength="261" x="73.5" y="141.4561">affiche une fenetre "POP-UP" de confirmation</text><path d="M13,161.3125 L74,161.3125 L74,169.3125 L64,179.3125 L13,179.3125 L13,161.3125 " fill="#EEEEEE" style="stroke: #000000; stroke-width: 1.0;"/><rect fill="none" height="181.5938" style="stroke: #000000; stroke-width: 2.0;" width="521.5" x="13" y="161.3125"/><text fill="#000000" font-family="sans-serif" font-size="13" font-weight="bold" lengthAdjust="spacingAndGlyphs" textLength="16" x="28" y="175.8076">alt</text><text fill="#000000" font-family="sans-serif" font-size="11" font-weight="bold" lengthAdjust="spacingAndGlyphs" textLength="115" x="89" y="174.7314">[confirmer "DELETE"]</text><polygon fill="#A80036" points="329.5,198.0156,339.5,202.0156,329.5,206.0156,333.5,202.0156" style="stroke: #A80036; stroke-width: 1.0;"/><line style="stroke: #A80036; stroke-width: 1.0;" x1="45.5" x2="335.5" y1="202.0156" y2="202.0156"/><text fill="#000000" font-family="sans-serif" font-size="13" font-weight="bold" lengthAdjust="spacingAndGlyphs" textLength="7" x="52.5" y="197.1592">3</text><text fill="#000000" font-family="sans-serif" font-size="13" lengthAdjust="spacingAndGlyphs" textLength="113" x="63.5" y="197.1592">clique sur confirmer</text><line style="stroke: #A80036; stroke-width: 1.0;" x1="351.5" x2="393.5" y1="237.3672" y2="237.3672"/><line style="stroke: #A80036; stroke-width: 1.0;" x1="393.5" x2="393.5" y1="237.3672" y2="250.3672"/><line style="stroke: #A80036; stroke-width: 1.0;" x1="346.5" x2="393.5" y1="250.3672" y2="250.3672"/><polygon fill="#A80036" points="356.5,246.3672,346.5,250.3672,356.5,254.3672,352.5,250.3672" style="stroke: #A80036; stroke-width: 1.0;"/><text fill="#000000" font-family="sans-serif" font-size="13" font-weight="bold" lengthAdjust="spacingAndGlyphs" textLength="7" x="358.5" y="232.5107">4</text><text fill="#000000" font-family="sans-serif" font-size="13" lengthAdjust="spacingAndGlyphs" textLength="109" x="369.5" y="232.5107">Supprime le match</text><line style="stroke: #000000; stroke-width: 1.0; stroke-dasharray: 2.0,2.0;" x1="13" x2="534.5" y1="254.3672" y2="254.3672"/><text fill="#000000" font-family="sans-serif" font-size="11" font-weight="bold" lengthAdjust="spacingAndGlyphs" textLength="50" x="18" y="265.7861">[annuler]</text><polygon fill="#A80036" points="329.5,287.5547,339.5,291.5547,329.5,295.5547,333.5,291.5547" style="stroke: #A80036; stroke-width: 1.0;"/><line style="stroke: #A80036; stroke-width: 1.0;" x1="45.5" x2="335.5" y1="291.5547" y2="291.5547"/><text fill="#000000" font-family="sans-serif" font-size="13" font-weight="bold" lengthAdjust="spacingAndGlyphs" textLength="7" x="52.5" y="286.6982">5</text><text fill="#000000" font-family="sans-serif" font-size="13" lengthAdjust="spacingAndGlyphs" textLength="102" x="63.5" y="286.6982">clique sur annuler</text><line style="stroke: #A80036; stroke-width: 1.0;" x1="351.5" x2="393.5" y1="326.9063" y2="326.9063"/><line style="stroke: #A80036; stroke-width: 1.0;" x1="393.5" x2="393.5" y1="326.9063" y2="339.9063"/><line style="stroke: #A80036; stroke-width: 1.0;" x1="346.5" x2="393.5" y1="339.9063" y2="339.9063"/><polygon fill="#A80036" points="356.5,335.9063,346.5,339.9063,356.5,343.9063,352.5,339.9063" style="stroke: #A80036; stroke-width: 1.0;"/><text fill="#000000" font-family="sans-serif" font-size="13" font-weight="bold" lengthAdjust="spacingAndGlyphs" textLength="7" x="358.5" y="322.0498">6</text><text fill="#000000" font-family="sans-serif" font-size="13" lengthAdjust="spacingAndGlyphs" textLength="153" x="369.5" y="322.0498">quitte la fenetre "POP-UP"</text><!--
@startuml SSD_MATCH_DEL
hide footbox
autonumber
skinparam shadowing false
actor User as u
participant System as s 
activate u
u -> s : clique sur le bouton "DELETE"
activate s
s -> u : affiche une fenetre "POP-UP" de confirmation
deactivate s
alt confirmer "DELETE"
    u -> s: clique sur confirmer
    activate s
    s -> s: Supprime le match
    deactivate s
else annuler
    u -> s: clique sur annuler
    activate s
    s -> s: quitte la fenetre "POP-UP"
    deactivate s
end
@enduml

PlantUML version 1.2018.12(Sun Oct 21 12:15:15 CEST 2018)
(GPL source distribution)
Java Runtime: Java(TM) SE Runtime Environment
JVM: Java HotSpot(TM) 64-Bit Server VM
Java Version: 1.8.0_191-b12
Operating System: Windows 7
OS Version: 6.1
Default Encoding: Cp1252
Language: fr
Country: BE
--></g></svg>