<?xml version="1.0" encoding="UTF-8" standalone="no"?><svg xmlns="http://www.w3.org/2000/svg" xmlns:xlink="http://www.w3.org/1999/xlink" contentScriptType="application/ecmascript" contentStyleType="text/css" height="599px" preserveAspectRatio="none" style="width:1090px;height:599px;" version="1.1" viewBox="0 0 1090 599" width="1090px" zoomAndPan="magnify"><defs/><g><rect fill="#FFFFFF" height="485.0859" style="stroke: #A80036; stroke-width: 1.0;" width="10" x="20.5" y="93.6094"/><rect fill="#FFFFFF" height="30" style="stroke: #A80036; stroke-width: 1.0;" width="10" x="390" y="115.9609"/><rect fill="#FFFFFF" height="30" style="stroke: #A80036; stroke-width: 1.0;" width="10" x="390" y="176.3125"/><rect fill="#FFFFFF" height="30" style="stroke: #A80036; stroke-width: 1.0;" width="10" x="390" y="236.6641"/><rect fill="#FFFFFF" height="281.6797" style="stroke: #A80036; stroke-width: 1.0;" width="10" x="390" y="297.0156"/><rect fill="#FFFFFF" height="251.3281" style="stroke: #A80036; stroke-width: 1.0;" width="10" x="790" y="327.3672"/><rect fill="#FFFFFF" height="160.7578" style="stroke: #A80036; stroke-width: 1.0;" width="10" x="1065" y="417.9375"/><rect fill="#FEFECE" height="49.2188" style="stroke: #A80036; stroke-width: 1.5;" width="64" x="987" y="335.3672"/><text fill="#000000" font-family="sans-serif" font-size="14" font-style="italic" lengthAdjust="spacingAndGlyphs" textLength="50" x="994" y="356.3672">«entity»</text><text fill="#000000" font-family="sans-serif" font-size="14" lengthAdjust="spacingAndGlyphs" textLength="42" x="998" y="373.9766">:Match</text><rect fill="#FFFFFF" height="137.7578" style="stroke: #000000; stroke-width: 2.0;" width="635" x="43" y="432.9375"/><rect fill="#FFFFFF" height="76.0547" style="stroke: none; stroke-width: 1.0;" width="635" x="43" y="494.6406"/><rect fill="#FEFECE" height="49.2188" style="stroke: #A80036; stroke-width: 1.5;" width="70" x="53" y="510.4766"/><text fill="#000000" font-family="sans-serif" font-size="14" font-style="italic" lengthAdjust="spacingAndGlyphs" textLength="42" x="67" y="531.4766">«view»</text><text fill="#000000" font-family="sans-serif" font-size="14" lengthAdjust="spacingAndGlyphs" textLength="56" x="60" y="549.0859">:AlertBox</text><line style="stroke: #A80036; stroke-width: 1.0; stroke-dasharray: 5.0,5.0;" x1="25" x2="25" y1="83.6094" y2="587.6953"/><line style="stroke: #A80036; stroke-width: 1.0; stroke-dasharray: 5.0,5.0;" x1="88" x2="88" y1="550.5859" y2="587.6953"/><line style="stroke: #A80036; stroke-width: 1.0; stroke-dasharray: 5.0,5.0;" x1="395" x2="395" y1="83.6094" y2="587.6953"/><line style="stroke: #A80036; stroke-width: 1.0; stroke-dasharray: 5.0,5.0;" x1="794.5" x2="794.5" y1="83.6094" y2="587.6953"/><line style="stroke: #A80036; stroke-width: 1.0; stroke-dasharray: 5.0,5.0;" x1="872.5" x2="872.5" y1="83.6094" y2="587.6953"/><line style="stroke: #A80036; stroke-width: 1.0; stroke-dasharray: 5.0,5.0;" x1="1019" x2="1019" y1="375.4766" y2="587.6953"/><line style="stroke: #A80036; stroke-width: 1.0; stroke-dasharray: 5.0,5.0;" x1="1070" x2="1070" y1="83.6094" y2="587.6953"/><text fill="#000000" font-family="sans-serif" font-size="14" lengthAdjust="spacingAndGlyphs" textLength="29" x="8" y="80.5332">User</text><ellipse cx="25.5" cy="13" fill="#FEFECE" rx="8" ry="8" style="stroke: #A80036; stroke-width: 2.0;"/><path d="M25.5,21 L25.5,48 M12.5,29 L38.5,29 M25.5,48 L12.5,63 M25.5,48 L38.5,63 " fill="none" style="stroke: #A80036; stroke-width: 2.0;"/><rect fill="#FEFECE" height="49.2188" style="stroke: #A80036; stroke-width: 1.5;" width="56" x="367" y="33.3906"/><text fill="#000000" font-family="sans-serif" font-size="14" font-style="italic" lengthAdjust="spacingAndGlyphs" textLength="42" x="374" y="54.3906">«view»</text><text fill="#000000" font-family="sans-serif" font-size="14" lengthAdjust="spacingAndGlyphs" textLength="33" x="378.5" y="72">:View</text><rect fill="#FEFECE" height="49.2188" style="stroke: #A80036; stroke-width: 1.5;" width="49" x="770.5" y="33.3906"/><text fill="#000000" font-family="sans-serif" font-size="14" font-style="italic" lengthAdjust="spacingAndGlyphs" textLength="35" x="777.5" y="54.3906">«ctrl»</text><text fill="#000000" font-family="sans-serif" font-size="14" lengthAdjust="spacingAndGlyphs" textLength="26" x="782" y="72">:Ctrl</text><rect fill="#FEFECE" height="49.2188" style="stroke: #A80036; stroke-width: 1.5;" width="87" x="829.5" y="33.3906"/><text fill="#000000" font-family="sans-serif" font-size="14" font-style="italic" lengthAdjust="spacingAndGlyphs" textLength="50" x="848" y="54.3906">«entity»</text><text fill="#000000" font-family="sans-serif" font-size="14" lengthAdjust="spacingAndGlyphs" textLength="73" x="836.5" y="72">:Federation</text><rect fill="#FEFECE" height="31.6094" style="stroke: #A80036; stroke-width: 1.5;" width="18" x="1061" y="51"/><text fill="#000000" font-family="sans-serif" font-size="14" lengthAdjust="spacingAndGlyphs" textLength="4" x="1068" y="72.5332">t</text><rect fill="#FFFFFF" height="485.0859" style="stroke: #A80036; stroke-width: 1.0;" width="10" x="20.5" y="93.6094"/><rect fill="#FFFFFF" height="30" style="stroke: #A80036; stroke-width: 1.0;" width="10" x="390" y="115.9609"/><rect fill="#FFFFFF" height="30" style="stroke: #A80036; stroke-width: 1.0;" width="10" x="390" y="176.3125"/><rect fill="#FFFFFF" height="30" style="stroke: #A80036; stroke-width: 1.0;" width="10" x="390" y="236.6641"/><rect fill="#FFFFFF" height="281.6797" style="stroke: #A80036; stroke-width: 1.0;" width="10" x="390" y="297.0156"/><rect fill="#FFFFFF" height="251.3281" style="stroke: #A80036; stroke-width: 1.0;" width="10" x="790" y="327.3672"/><rect fill="#FFFFFF" height="160.7578" style="stroke: #A80036; stroke-width: 1.0;" width="10" x="1065" y="417.9375"/><polygon fill="#A80036" points="378,111.9609,388,115.9609,378,119.9609,382,115.9609" style="stroke: #A80036; stroke-width: 1.0;"/><line style="stroke: #A80036; stroke-width: 1.0;" x1="30.5" x2="384" y1="115.9609" y2="115.9609"/><text fill="#000000" font-family="sans-serif" font-size="13" font-weight="bold" lengthAdjust="spacingAndGlyphs" textLength="7" x="37.5" y="111.1045">1</text><text fill="#000000" font-family="sans-serif" font-size="13" lengthAdjust="spacingAndGlyphs" textLength="189" x="48.5" y="111.1045">pl1.setValue(mSel.getPl1Name);</text><polygon fill="#A80036" points="378,172.3125,388,176.3125,378,180.3125,382,176.3125" style="stroke: #A80036; stroke-width: 1.0;"/><line style="stroke: #A80036; stroke-width: 1.0;" x1="30.5" x2="384" y1="176.3125" y2="176.3125"/><text fill="#000000" font-family="sans-serif" font-size="13" font-weight="bold" lengthAdjust="spacingAndGlyphs" textLength="7" x="37.5" y="171.4561">2</text><text fill="#000000" font-family="sans-serif" font-size="13" lengthAdjust="spacingAndGlyphs" textLength="189" x="48.5" y="171.4561">pl2.setValue(mSel.getPl2Name);</text><polygon fill="#A80036" points="378,232.6641,388,236.6641,378,240.6641,382,236.6641" style="stroke: #A80036; stroke-width: 1.0;"/><line style="stroke: #A80036; stroke-width: 1.0;" x1="30.5" x2="384" y1="236.6641" y2="236.6641"/><text fill="#000000" font-family="sans-serif" font-size="13" font-weight="bold" lengthAdjust="spacingAndGlyphs" textLength="7" x="37.5" y="231.8076">3</text><text fill="#000000" font-family="sans-serif" font-size="13" lengthAdjust="spacingAndGlyphs" textLength="189" x="48.5" y="231.8076">res.setValue(mSel.getresName);</text><polygon fill="#A80036" points="378,293.0156,388,297.0156,378,301.0156,382,297.0156" style="stroke: #A80036; stroke-width: 1.0;"/><line style="stroke: #A80036; stroke-width: 1.0;" x1="30.5" x2="384" y1="297.0156" y2="297.0156"/><text fill="#000000" font-family="sans-serif" font-size="13" font-weight="bold" lengthAdjust="spacingAndGlyphs" textLength="7" x="37.5" y="292.1592">4</text><text fill="#000000" font-family="sans-serif" font-size="13" lengthAdjust="spacingAndGlyphs" textLength="158" x="48.5" y="292.1592">btAddMatch.setOnAction();</text><polygon fill="#A80036" points="778,323.3672,788,327.3672,778,331.3672,782,327.3672" style="stroke: #A80036; stroke-width: 1.0;"/><line style="stroke: #A80036; stroke-width: 1.0;" x1="400" x2="784" y1="327.3672" y2="327.3672"/><text fill="#000000" font-family="sans-serif" font-size="13" font-weight="bold" lengthAdjust="spacingAndGlyphs" textLength="7" x="407" y="322.5107">5</text><text fill="#000000" font-family="sans-serif" font-size="13" lengthAdjust="spacingAndGlyphs" textLength="360" x="418" y="322.5107">addMatch(pl1.getValue(),p2.getValue(),res.getValue()):boolean</text><polygon fill="#A80036" points="975,353.7188,985,357.7188,975,361.7188,979,357.7188" style="stroke: #A80036; stroke-width: 1.0;"/><line style="stroke: #A80036; stroke-width: 1.0;" x1="800" x2="981" y1="357.7188" y2="357.7188"/><text fill="#000000" font-family="sans-serif" font-size="13" font-weight="bold" lengthAdjust="spacingAndGlyphs" textLength="7" x="807" y="352.8623">6</text><text fill="#000000" font-family="sans-serif" font-size="13" lengthAdjust="spacingAndGlyphs" textLength="152" x="818" y="352.8623">m = new Match(p1,p2,res)</text><rect fill="#FEFECE" height="49.2188" style="stroke: #A80036; stroke-width: 1.5;" width="64" x="987" y="335.3672"/><text fill="#000000" font-family="sans-serif" font-size="14" font-style="italic" lengthAdjust="spacingAndGlyphs" textLength="50" x="994" y="356.3672">«entity»</text><text fill="#000000" font-family="sans-serif" font-size="14" lengthAdjust="spacingAndGlyphs" textLength="42" x="998" y="373.9766">:Match</text><polygon fill="#A80036" points="1053,413.9375,1063,417.9375,1053,421.9375,1057,417.9375" style="stroke: #A80036; stroke-width: 1.0;"/><line style="stroke: #A80036; stroke-width: 1.0;" x1="800" x2="1059" y1="417.9375" y2="417.9375"/><text fill="#000000" font-family="sans-serif" font-size="13" font-weight="bold" lengthAdjust="spacingAndGlyphs" textLength="7" x="807" y="413.0811">7</text><text fill="#000000" font-family="sans-serif" font-size="13" lengthAdjust="spacingAndGlyphs" textLength="125" x="818" y="413.0811">addMatch(m):boolean</text><path d="M43,432.9375 L104,432.9375 L104,440.9375 L94,450.9375 L43,450.9375 L43,432.9375 " fill="#EEEEEE" style="stroke: #000000; stroke-width: 1.0;"/><rect fill="none" height="137.7578" style="stroke: #000000; stroke-width: 2.0;" width="635" x="43" y="432.9375"/><text fill="#000000" font-family="sans-serif" font-size="13" font-weight="bold" lengthAdjust="spacingAndGlyphs" textLength="16" x="58" y="447.4326">alt</text><text fill="#000000" font-family="sans-serif" font-size="11" font-weight="bold" lengthAdjust="spacingAndGlyphs" textLength="22" x="119" y="446.3564">[ok]</text><line style="stroke: #A80036; stroke-width: 1.0;" x1="400" x2="442" y1="473.6406" y2="473.6406"/><line style="stroke: #A80036; stroke-width: 1.0;" x1="442" x2="442" y1="473.6406" y2="486.6406"/><line style="stroke: #A80036; stroke-width: 1.0;" x1="401" x2="442" y1="486.6406" y2="486.6406"/><polygon fill="#A80036" points="411,482.6406,401,486.6406,411,490.6406,407,486.6406" style="stroke: #A80036; stroke-width: 1.0;"/><text fill="#000000" font-family="sans-serif" font-size="13" font-weight="bold" lengthAdjust="spacingAndGlyphs" textLength="7" x="407" y="468.7842">8</text><text fill="#000000" font-family="sans-serif" font-size="13" lengthAdjust="spacingAndGlyphs" textLength="248" x="418" y="468.7842">displayMatch(selectedTrnm().getMatchs()):</text><line style="stroke: #000000; stroke-width: 1.0; stroke-dasharray: 2.0,2.0;" x1="43" x2="678" y1="495.6406" y2="495.6406"/><text fill="#000000" font-family="sans-serif" font-size="11" font-weight="bold" lengthAdjust="spacingAndGlyphs" textLength="43" x="48" y="507.0596">[not ok]</text><polygon fill="#A80036" points="134,528.8281,124,532.8281,134,536.8281,130,532.8281" style="stroke: #A80036; stroke-width: 1.0;"/><line style="stroke: #A80036; stroke-width: 1.0;" x1="128" x2="389" y1="532.8281" y2="532.8281"/><text fill="#000000" font-family="sans-serif" font-size="13" font-weight="bold" lengthAdjust="spacingAndGlyphs" textLength="7" x="140" y="527.9717">9</text><text fill="#000000" font-family="sans-serif" font-size="13" lengthAdjust="spacingAndGlyphs" textLength="232" x="151" y="527.9717">AlertBox("Error","Opération impossible")</text><rect fill="#FEFECE" height="49.2188" style="stroke: #A80036; stroke-width: 1.5;" width="70" x="53" y="510.4766"/><text fill="#000000" font-family="sans-serif" font-size="14" font-style="italic" lengthAdjust="spacingAndGlyphs" textLength="42" x="67" y="531.4766">«view»</text><text fill="#000000" font-family="sans-serif" font-size="14" lengthAdjust="spacingAndGlyphs" textLength="56" x="60" y="549.0859">:AlertBox</text><!--
@startuml SD_MATCH_ADD
hide footbox
autonumber
skinparam shadowing false
actor User as u
participant ":AlertBox" as ab <<view>>
participant ":View" as v <<view>>
participant ":Ctrl" as c <<ctrl>>
participant ":Federation" as f <<entity>> 
participant ":Match" as m <<entity>>

activate u
u -> v : pl1.setValue(mSel.getPl1Name);
activate v
deactivate v 
u -> v : pl2.setValue(mSel.getPl2Name);
activate v
deactivate v 
u -> v : res.setValue(mSel.getresName);
activate v
deactivate v 
u -> v : btAddMatch.setOnAction();
activate v
v-> c : addMatch(pl1.getValue(),p2.getValue(),res.getValue()):boolean
activate c
create m
c->m : m = new Match(p1,p2,res)
c->t : addMatch(m):boolean
activate t
alt ok
    v -> v : displayMatch(selectedTrnm().getMatchs()):
else not ok
    create ab
    v -> ab:  AlertBox("Error","Opération impossible")
end
@enduml

PlantUML version 1.2018.12(Sun Oct 21 12:15:15 CEST 2018)
(GPL source distribution)
Java Runtime: Java(TM) SE Runtime Environment
JVM: Java HotSpot(TM) Client VM
Java Version: 1.8.0_151-b12
Operating System: Windows 10
OS Version: 10.0
Default Encoding: Cp1252
Language: fr
Country: BE
--></g></svg>